<svg id="svg" version="1.1" xmlns="http://www.w3.org/2000/svg" xmlns:xlink="http://www.w3.org/1999/xlink" width="400" height="150.62344139650872" viewBox="0, 0, 400,150.62344139650872"><g id="svgg"><path id="path0" d="M63.834 48.950 C 63.514 48.993,63.157 49.105,63.042 49.201 C 62.725 49.464,62.747 100.456,63.065 100.875 C 63.274 101.149,64.293 101.167,80.314 101.167 L 97.342 101.167 97.504 100.739 C 97.717 100.179,97.710 98.580,97.491 97.792 L 97.318 97.167 82.331 97.167 L 67.345 97.167 67.131 96.792 C 66.960 96.492,66.908 91.682,66.872 72.879 C 66.829 50.764,66.809 49.332,66.538 49.188 C 66.167 48.990,64.586 48.851,63.834 48.950 M107.711 48.954 C 106.587 49.093,106.667 47.119,106.667 74.962 C 106.667 104.307,106.428 101.167,108.659 101.167 C 111.102 101.167,110.833 103.749,110.833 80.240 C 110.833 66.061,110.888 59.956,111.020 59.385 L 111.206 58.578 111.854 58.640 C 112.453 58.697,113.167 59.308,113.167 59.763 C 113.167 59.833,113.270 60.009,113.397 60.154 C 113.523 60.298,113.909 60.942,114.254 61.583 C 114.599 62.225,114.942 62.829,115.017 62.924 C 115.091 63.020,115.411 63.625,115.729 64.268 C 116.047 64.911,116.421 65.532,116.559 65.647 C 116.698 65.762,116.861 66.078,116.920 66.349 C 116.980 66.620,117.198 67.046,117.405 67.296 C 117.613 67.546,117.888 67.948,118.016 68.190 C 118.145 68.432,118.577 69.172,118.977 69.835 C 119.377 70.498,120.070 71.749,120.517 72.616 C 120.963 73.482,121.480 74.384,121.664 74.618 C 121.849 74.853,122.000 75.134,122.000 75.243 C 122.000 75.352,122.223 75.735,122.495 76.095 C 122.768 76.455,122.993 76.834,122.995 76.936 C 122.998 77.038,123.140 77.301,123.310 77.519 C 123.824 78.178,125.527 81.204,125.771 81.894 C 125.896 82.248,126.224 82.794,126.499 83.108 C 126.775 83.422,127.000 83.778,127.000 83.900 C 127.000 84.022,127.158 84.322,127.351 84.568 C 127.544 84.813,127.879 85.329,128.096 85.715 C 128.313 86.101,128.645 86.679,128.835 87.000 C 129.859 88.733,130.390 89.672,130.791 90.458 L 131.236 91.333 132.171 91.333 C 133.060 91.333,134.167 90.602,134.167 90.013 C 134.167 89.947,134.429 89.523,134.750 89.072 C 135.071 88.620,135.333 88.174,135.333 88.080 C 135.333 87.986,135.544 87.648,135.802 87.330 C 136.060 87.011,136.372 86.487,136.496 86.167 C 136.620 85.846,136.813 85.471,136.925 85.333 C 137.038 85.196,137.298 84.709,137.504 84.250 C 137.710 83.792,138.048 83.192,138.255 82.917 C 138.461 82.642,138.856 81.967,139.132 81.417 C 139.407 80.867,139.791 80.236,139.983 80.016 C 140.176 79.796,140.333 79.520,140.333 79.404 C 140.333 79.288,140.522 78.968,140.753 78.694 C 140.984 78.419,141.359 77.795,141.586 77.306 C 141.813 76.817,142.069 76.304,142.153 76.167 C 142.238 76.029,142.471 75.579,142.672 75.167 C 142.874 74.754,143.241 74.154,143.489 73.833 C 143.737 73.512,144.040 72.987,144.161 72.667 C 144.282 72.346,144.592 71.811,144.849 71.478 C 145.107 71.146,145.364 70.684,145.422 70.453 C 145.480 70.222,145.676 69.874,145.856 69.681 C 146.037 69.487,146.593 68.539,147.092 67.574 C 147.591 66.609,148.300 65.357,148.667 64.793 C 149.033 64.229,149.333 63.680,149.333 63.575 C 149.333 63.469,149.504 63.197,149.714 62.972 C 149.923 62.746,150.287 62.191,150.522 61.739 C 152.147 58.621,152.101 58.675,153.098 58.669 C 153.935 58.663,153.911 58.084,154.000 80.118 C 154.096 103.873,153.823 101.152,156.111 101.161 L 157.473 101.167 157.820 100.605 L 158.167 100.044 158.167 75.462 C 158.167 48.798,158.183 49.437,157.485 49.075 C 156.788 48.715,154.362 48.751,153.889 49.129 C 153.490 49.447,152.000 51.577,152.000 51.829 C 152.000 51.917,151.774 52.246,151.497 52.561 C 151.220 52.876,150.908 53.385,150.803 53.692 C 150.698 53.999,150.437 54.511,150.223 54.830 C 150.009 55.150,149.833 55.465,149.833 55.532 C 149.833 55.599,149.421 56.341,148.917 57.181 C 148.412 58.022,148.000 58.733,148.000 58.763 C 148.000 58.792,147.775 59.150,147.500 59.557 C 147.225 59.965,147.000 60.374,147.000 60.467 C 147.000 60.559,146.737 60.949,146.417 61.333 C 146.096 61.717,145.833 62.103,145.833 62.189 C 145.833 62.610,142.718 68.012,142.341 68.245 C 142.259 68.296,142.101 68.618,141.992 68.961 C 141.883 69.303,141.617 69.773,141.401 70.005 C 141.185 70.236,140.919 70.686,140.809 71.005 C 140.699 71.323,140.483 71.771,140.328 72.000 C 140.174 72.229,139.618 73.204,139.093 74.167 C 138.569 75.129,137.932 76.179,137.679 76.500 C 137.426 76.821,137.069 77.421,136.886 77.833 C 136.704 78.246,136.433 78.683,136.286 78.805 C 136.138 78.927,135.926 79.301,135.816 79.637 C 135.705 79.972,135.401 80.593,135.141 81.017 C 134.880 81.440,134.665 81.854,134.662 81.935 C 134.659 82.017,134.434 82.378,134.162 82.738 C 133.890 83.098,133.667 83.478,133.667 83.583 C 133.667 83.869,132.507 85.167,132.252 85.167 C 132.043 85.167,131.333 83.925,131.333 83.560 C 131.333 83.467,131.146 83.215,130.917 83.000 C 130.688 82.785,130.500 82.540,130.500 82.457 C 130.500 82.373,130.283 81.992,130.017 81.611 C 129.353 80.657,127.667 77.659,127.667 77.433 C 127.667 77.332,127.404 76.880,127.083 76.428 C 126.763 75.977,126.500 75.540,126.500 75.456 C 126.500 75.373,126.287 74.992,126.026 74.611 C 125.448 73.764,123.980 71.298,123.580 70.500 C 123.419 70.179,123.228 69.878,123.157 69.832 C 123.085 69.785,122.875 69.363,122.690 68.893 C 122.505 68.423,122.169 67.840,121.943 67.596 C 121.717 67.353,121.482 66.951,121.420 66.703 C 121.358 66.456,121.244 66.214,121.167 66.167 C 121.033 66.084,120.794 65.687,119.108 62.750 C 118.688 62.017,118.225 61.267,118.081 61.083 C 117.937 60.900,117.692 60.394,117.537 59.958 C 117.382 59.523,117.198 59.167,117.128 59.167 C 117.059 59.167,116.837 58.810,116.636 58.375 C 116.435 57.940,116.060 57.322,115.802 57.004 C 115.544 56.685,115.333 56.361,115.333 56.284 C 115.333 56.207,115.121 55.830,114.862 55.447 C 114.602 55.064,114.216 54.375,114.004 53.917 C 113.791 53.458,113.443 52.848,113.232 52.561 C 113.020 52.274,112.718 51.712,112.560 51.311 C 112.403 50.911,112.108 50.426,111.906 50.234 C 111.704 50.042,111.491 49.735,111.433 49.551 C 111.245 48.959,109.684 48.708,107.711 48.954 M264.507 61.538 C 263.694 61.964,263.475 67.633,264.235 68.583 C 264.980 69.515,268.096 69.434,269.224 68.453 L 269.864 67.896 269.807 65.284 L 269.750 62.672 269.123 62.044 L 268.495 61.417 266.706 61.370 C 265.486 61.338,264.786 61.392,264.507 61.538 M335.839 61.656 C 335.744 61.833,335.667 62.093,335.667 62.233 C 335.667 62.373,335.526 62.563,335.354 62.655 C 334.708 63.001,334.666 63.851,334.677 76.365 C 334.689 91.223,334.681 91.167,336.792 91.167 C 337.439 91.167,337.667 91.229,337.667 91.405 C 337.667 92.408,342.325 92.534,342.470 91.535 C 342.518 91.203,342.620 91.167,343.494 91.167 C 344.647 91.167,344.667 91.137,344.667 89.390 L 344.667 88.141 345.158 88.632 C 345.572 89.046,345.657 89.277,345.699 90.103 L 345.750 91.083 346.708 91.133 C 347.387 91.169,347.667 91.250,347.667 91.413 C 347.667 92.005,348.150 92.167,349.918 92.167 C 351.869 92.167,352.500 92.005,352.500 91.504 C 352.500 91.203,352.607 91.167,353.504 91.167 C 354.487 91.167,354.511 91.156,354.608 90.667 C 354.692 90.250,354.788 90.167,355.188 90.167 C 355.609 90.167,355.667 90.227,355.667 90.667 L 355.667 91.167 356.667 91.167 C 357.519 91.167,357.667 91.211,357.667 91.467 C 357.667 92.095,357.979 92.167,360.709 92.167 L 363.351 92.167 363.525 91.667 L 363.699 91.167 368.100 91.167 L 372.500 91.167 372.500 84.237 L 372.500 77.308 372.006 76.814 C 371.545 76.353,371.510 76.225,371.465 74.869 L 371.417 73.417 370.466 73.367 L 369.516 73.317 369.466 72.367 C 369.420 71.474,369.390 71.414,368.968 71.365 C 368.622 71.325,368.508 71.211,368.468 70.865 C 368.419 70.439,368.366 70.414,367.392 70.368 C 366.542 70.327,366.354 70.263,366.284 69.995 C 366.144 69.461,365.445 69.333,362.662 69.333 L 360.011 69.333 359.500 69.833 C 359.032 70.291,358.892 70.333,357.838 70.333 C 356.499 70.333,355.912 70.514,355.795 70.962 C 355.736 71.188,355.505 71.317,355.018 71.394 C 354.065 71.547,353.668 72.203,353.667 73.630 C 353.666 75.922,354.040 76.192,357.123 76.130 L 359.417 76.083 359.469 75.625 L 359.522 75.167 361.755 75.167 L 363.989 75.167 364.500 75.667 C 364.781 75.942,365.159 76.167,365.339 76.167 C 365.592 76.167,365.667 76.281,365.667 76.667 C 365.667 77.111,365.722 77.167,366.167 77.167 C 366.611 77.167,366.667 77.222,366.667 77.667 L 366.667 78.167 362.440 78.167 C 357.313 78.167,356.667 78.232,356.667 78.752 C 356.667 79.150,356.172 79.333,355.100 79.333 C 354.541 79.333,353.833 79.728,353.833 80.039 C 353.833 80.142,353.590 80.429,353.292 80.678 L 352.750 81.129 352.696 83.739 L 352.643 86.349 351.620 86.299 C 350.684 86.254,350.589 86.215,350.500 85.833 C 350.439 85.572,350.268 85.397,350.040 85.364 L 349.677 85.312 349.630 73.559 C 349.584 62.029,349.577 61.802,349.250 61.555 C 348.767 61.192,345.388 61.316,344.771 61.721 C 343.696 62.425,343.755 61.716,343.703 74.618 L 343.656 86.333 342.178 86.333 L 340.699 86.333 340.525 85.833 C 340.409 85.500,340.238 85.333,340.013 85.333 C 339.678 85.333,339.675 85.257,339.629 73.570 C 339.576 59.890,339.830 61.333,337.474 61.333 C 336.199 61.333,335.990 61.375,335.839 61.656 M177.105 63.708 C 176.973 64.200,176.969 90.560,177.101 90.903 C 177.192 91.139,178.256 91.167,187.414 91.167 C 198.188 91.167,197.856 91.190,198.046 90.417 C 198.120 90.117,198.130 90.122,198.147 90.462 C 198.172 90.953,198.737 91.167,200.011 91.167 C 200.852 91.167,201.000 91.211,201.000 91.467 C 201.000 92.100,201.306 92.167,204.189 92.167 C 207.175 92.167,207.833 92.047,207.833 91.504 C 207.833 91.175,207.928 91.167,211.814 91.167 L 215.794 91.167 215.894 90.792 C 216.007 90.368,215.860 77.213,215.734 76.375 C 215.647 75.805,215.018 75.333,214.342 75.333 C 214.035 75.333,214.000 75.230,214.000 74.333 L 214.000 73.333 213.500 73.333 C 213.023 73.333,213.000 73.301,212.999 72.625 C 212.997 70.674,212.614 70.333,210.427 70.333 L 209.042 70.333 208.942 69.833 L 208.842 69.333 206.015 69.333 C 203.035 69.333,202.428 69.438,202.255 69.983 C 202.166 70.263,201.980 70.326,201.116 70.367 C 200.127 70.415,200.081 70.436,200.031 70.875 C 199.981 71.305,199.928 71.333,199.163 71.333 C 197.295 71.333,196.599 72.594,197.185 74.919 C 197.476 76.075,197.770 76.184,200.452 76.130 C 202.734 76.083,202.735 76.083,202.833 75.667 L 202.931 75.250 205.448 75.204 L 207.964 75.158 208.126 75.621 C 208.372 76.322,209.188 77.167,209.620 77.167 C 209.931 77.167,210.000 77.257,210.000 77.667 L 210.000 78.167 205.773 78.167 C 200.619 78.167,200.000 78.231,200.000 78.762 C 200.000 79.095,199.893 79.160,199.208 79.251 C 197.578 79.465,197.480 79.507,197.235 80.095 C 197.106 80.403,197.000 80.846,197.000 81.078 C 197.000 81.310,196.924 81.500,196.831 81.500 C 196.304 81.500,196.001 82.580,196.001 84.458 L 196.000 86.333 189.500 86.333 L 183.000 86.333 183.000 75.033 C 183.000 66.467,182.952 63.685,182.800 63.533 C 182.375 63.109,177.223 63.267,177.105 63.708 M252.583 63.955 L 252.083 64.583 252.000 67.500 C 251.931 69.915,251.883 70.342,251.721 69.981 C 251.286 69.012,247.552 69.048,247.242 70.025 C 247.150 70.314,246.887 70.333,243.095 70.333 L 239.045 70.333 238.939 71.107 C 238.802 72.107,238.801 89.961,238.938 90.646 L 239.042 91.167 241.676 91.167 C 245.198 91.167,244.833 91.909,244.833 84.744 L 244.833 78.845 245.333 78.333 C 245.608 78.052,245.833 77.683,245.833 77.512 C 245.833 77.322,245.992 77.163,246.247 77.099 C 246.503 77.035,246.701 76.836,246.766 76.581 C 246.846 76.259,246.977 76.167,247.351 76.167 C 247.776 76.167,247.833 76.107,247.833 75.667 L 247.833 75.167 249.917 75.167 L 252.000 75.167 252.000 81.970 L 252.000 88.773 252.536 89.470 C 252.880 89.918,253.204 90.167,253.441 90.167 C 253.721 90.167,253.824 90.279,253.864 90.625 C 253.914 91.057,253.974 91.088,254.915 91.167 C 255.746 91.236,255.924 91.306,255.976 91.583 C 256.147 92.497,260.667 92.421,260.667 91.504 C 260.667 91.200,260.773 91.167,261.762 91.167 L 262.857 91.167 262.803 88.568 C 262.752 86.047,262.738 85.960,262.345 85.642 C 261.817 85.215,260.748 85.360,260.202 85.933 C 259.882 86.268,259.658 86.333,258.827 86.333 L 257.833 86.333 257.833 80.755 L 257.833 75.177 259.792 75.130 L 261.750 75.083 261.796 72.708 L 261.842 70.333 259.841 70.333 L 257.840 70.333 257.795 66.875 L 257.750 63.417 255.417 63.372 L 253.083 63.327 252.583 63.955 M281.502 63.546 C 281.168 63.716,281.061 63.937,280.956 64.667 C 280.720 66.308,280.884 90.617,281.133 90.867 C 281.293 91.027,282.057 91.083,284.050 91.083 L 286.750 91.083 286.793 83.125 L 286.837 75.167 287.335 75.167 C 287.833 75.167,287.833 75.167,287.833 76.167 L 287.833 77.167 288.333 77.167 C 288.833 77.167,288.833 77.168,288.833 78.156 C 288.833 79.360,289.029 79.925,289.487 80.045 C 289.722 80.106,289.833 80.270,289.833 80.557 C 289.833 81.207,290.137 81.857,290.484 81.948 C 290.661 81.994,290.838 82.231,290.890 82.491 C 291.006 83.071,292.052 84.167,292.489 84.167 C 292.771 84.167,292.824 84.300,292.867 85.125 C 292.914 86.027,292.943 86.086,293.365 86.135 C 293.711 86.175,293.825 86.289,293.865 86.635 L 293.917 87.083 295.767 87.130 C 297.868 87.183,298.451 87.037,298.579 86.423 C 298.627 86.190,298.704 85.821,298.749 85.602 C 298.798 85.360,298.985 85.165,299.226 85.104 C 299.643 85.000,299.833 84.281,299.833 82.810 C 299.833 82.235,299.878 82.167,300.250 82.167 C 300.602 82.167,300.667 82.089,300.667 81.667 C 300.667 81.344,300.751 81.167,300.905 81.167 C 301.356 81.167,301.667 80.659,301.667 79.921 C 301.667 79.284,301.720 79.181,302.125 79.039 C 303.136 78.685,303.663 78.006,303.706 77.005 C 303.727 76.498,303.784 79.458,303.831 83.583 L 303.917 91.083 306.792 91.129 L 309.667 91.175 309.667 77.250 L 309.667 63.325 306.792 63.371 L 303.917 63.417 303.867 64.365 C 303.820 65.256,303.791 65.316,303.367 65.365 C 303.016 65.405,302.905 65.517,302.864 65.873 C 302.835 66.124,302.591 66.550,302.322 66.819 C 301.955 67.186,301.832 67.467,301.828 67.946 C 301.821 68.723,301.412 69.253,300.697 69.410 C 300.073 69.547,299.833 69.916,299.833 70.739 C 299.833 71.066,299.758 71.333,299.667 71.333 C 299.142 71.333,298.833 72.013,298.833 73.167 L 298.833 74.333 298.333 74.333 C 297.889 74.333,297.833 74.389,297.833 74.833 C 297.833 75.108,297.758 75.333,297.667 75.333 C 297.354 75.333,296.833 75.999,296.833 76.399 C 296.833 76.618,296.718 76.842,296.578 76.896 C 296.437 76.950,296.180 77.314,296.006 77.705 C 295.747 78.290,295.688 78.344,295.678 78.009 C 295.672 77.785,295.482 77.408,295.255 77.172 C 295.029 76.936,294.782 76.444,294.707 76.080 C 294.603 75.579,294.481 75.404,294.207 75.364 C 293.849 75.312,293.763 75.085,293.628 73.833 C 293.587 73.455,293.503 73.412,292.708 73.366 L 291.833 73.316 291.814 72.366 C 291.784 70.918,291.638 70.425,291.222 70.365 C 290.927 70.323,290.841 70.163,290.747 69.479 C 290.657 68.827,290.547 68.605,290.242 68.466 C 289.940 68.329,289.821 68.095,289.716 67.437 C 289.605 66.740,289.498 66.547,289.124 66.368 C 288.728 66.178,288.667 66.050,288.667 65.413 C 288.667 64.572,288.395 64.333,287.439 64.333 C 286.926 64.333,286.849 64.278,286.803 63.875 L 286.750 63.417 284.333 63.375 C 282.631 63.346,281.794 63.396,281.502 63.546 M224.111 69.444 C 224.050 69.506,224.000 69.728,224.000 69.938 C 224.000 70.304,223.937 70.322,222.542 70.369 C 221.088 70.417,221.083 70.418,221.031 70.875 C 220.989 71.239,220.892 71.333,220.561 71.333 C 219.749 71.333,219.000 72.120,219.000 72.974 C 219.000 73.456,218.133 74.297,217.571 74.361 C 217.102 74.415,217.081 74.454,217.034 75.366 C 216.993 76.149,216.898 76.408,216.492 76.842 L 216.000 77.369 216.002 80.809 C 216.005 84.677,216.040 84.932,216.591 85.070 C 216.938 85.157,216.989 85.279,217.033 86.126 C 217.081 87.046,217.102 87.086,217.568 87.139 C 218.191 87.210,218.957 87.976,219.028 88.599 C 219.072 88.987,219.175 89.094,219.542 89.136 C 219.926 89.180,220.000 89.268,220.000 89.678 C 220.000 90.107,220.059 90.167,220.489 90.167 C 220.898 90.167,220.986 90.241,221.031 90.625 C 221.083 91.082,221.089 91.084,222.531 91.131 C 223.968 91.179,223.979 91.183,224.031 91.631 L 224.083 92.083 227.129 92.129 C 230.312 92.176,230.833 92.087,230.833 91.494 C 230.833 91.200,230.951 91.167,232.011 91.167 C 233.310 91.167,233.833 90.980,233.833 90.516 C 233.833 90.274,234.009 90.186,234.664 90.099 C 235.493 89.990,235.833 89.698,235.833 89.100 C 235.833 88.960,236.061 88.612,236.339 88.327 C 236.843 87.812,236.845 87.805,236.797 86.113 L 236.750 84.417 236.167 84.322 L 235.583 84.227 236.378 84.094 C 237.773 83.861,237.833 83.683,237.833 79.822 C 237.833 76.393,237.724 75.694,237.165 75.548 C 236.892 75.476,236.833 75.319,236.833 74.659 C 236.833 73.840,236.542 73.333,236.071 73.333 C 235.937 73.333,235.833 73.174,235.833 72.968 C 235.833 72.526,234.608 71.333,234.153 71.333 C 233.977 71.333,233.833 71.226,233.833 71.095 C 233.833 70.548,233.337 70.333,232.071 70.333 C 230.990 70.333,230.833 70.295,230.833 70.033 C 230.833 69.392,230.540 69.333,227.328 69.333 C 225.620 69.333,224.172 69.383,224.111 69.444 M263.910 70.542 C 263.866 70.656,263.850 75.325,263.873 80.917 L 263.917 91.083 266.645 91.129 C 268.515 91.161,269.445 91.115,269.603 90.984 C 269.885 90.749,269.950 71.495,269.671 70.761 L 269.508 70.333 266.749 70.333 C 264.695 70.333,263.969 70.387,263.910 70.542 M312.771 70.854 C 312.629 71.561,312.670 86.143,312.815 86.667 C 312.886 86.923,313.072 87.104,313.298 87.137 C 313.604 87.181,313.667 87.297,313.667 87.822 C 313.667 89.401,313.851 90.012,314.357 90.113 C 314.671 90.176,314.833 90.311,314.833 90.511 C 314.833 90.954,315.109 91.062,316.493 91.161 C 317.650 91.244,317.743 91.279,317.834 91.667 C 318.017 92.448,323.369 92.378,323.566 91.592 C 323.705 91.041,324.773 90.956,329.650 91.106 C 331.804 91.172,332.412 91.144,332.522 90.970 C 332.765 90.587,332.697 71.319,332.451 70.833 L 332.240 70.417 329.495 70.417 L 326.750 70.417 326.706 76.875 L 326.663 83.333 326.155 83.333 C 325.757 83.333,325.442 83.543,324.687 84.313 C 324.158 84.851,323.574 85.340,323.388 85.399 C 323.202 85.458,322.966 85.692,322.862 85.920 C 322.682 86.316,322.609 86.333,321.170 86.333 L 319.667 86.333 319.667 85.844 C 319.667 85.124,319.399 84.543,319.010 84.420 C 318.671 84.312,318.667 84.227,318.667 77.586 C 318.667 73.887,318.621 70.742,318.566 70.597 C 318.479 70.371,318.064 70.333,315.670 70.333 L 312.875 70.333 312.771 70.854 M230.000 75.667 C 230.000 76.111,230.056 76.167,230.500 76.167 C 230.944 76.167,231.000 76.222,231.000 76.667 C 231.000 77.111,231.056 77.167,231.500 77.167 C 231.944 77.167,232.000 77.222,232.000 77.667 L 232.000 78.167 227.395 78.167 L 222.790 78.167 222.893 77.542 C 222.950 77.198,222.997 76.748,222.998 76.542 C 223.000 76.261,223.097 76.167,223.385 76.167 C 223.620 76.167,223.915 75.971,224.140 75.667 L 224.510 75.167 227.255 75.167 L 230.000 75.167 230.000 75.667 M210.000 83.250 C 210.000 84.261,209.975 84.334,209.625 84.336 C 209.419 84.338,209.078 84.521,208.868 84.742 C 208.657 84.964,208.221 85.233,207.899 85.339 C 207.537 85.459,207.254 85.688,207.158 85.938 C 206.915 86.580,202.986 86.484,202.834 85.833 C 202.772 85.570,202.601 85.397,202.368 85.363 C 201.812 85.283,201.843 84.291,202.410 84.033 C 202.739 83.884,202.842 83.680,202.932 83.007 L 203.043 82.167 206.521 82.167 L 210.000 82.167 210.000 83.250 M366.667 83.250 L 366.667 84.333 366.167 84.333 C 365.743 84.333,365.667 84.398,365.667 84.755 C 365.667 85.184,365.608 85.227,364.787 85.407 C 364.532 85.463,364.162 85.694,363.965 85.921 C 363.620 86.318,363.529 86.333,361.564 86.333 L 359.522 86.333 359.469 85.875 C 359.432 85.547,359.310 85.402,359.042 85.363 C 358.479 85.284,358.505 84.294,359.077 84.033 C 359.405 83.884,359.509 83.680,359.598 83.007 L 359.710 82.167 363.188 82.167 L 366.667 82.167 366.667 83.250 M231.468 84.285 C 231.130 84.337,231.008 84.461,230.968 84.795 C 230.932 85.108,230.795 85.265,230.500 85.333 C 230.202 85.402,230.068 85.558,230.031 85.882 L 229.978 86.333 227.845 86.333 C 225.726 86.333,225.708 86.330,225.083 85.833 C 224.737 85.558,224.320 85.333,224.155 85.333 C 223.974 85.333,223.836 85.188,223.803 84.963 C 223.774 84.759,223.563 84.497,223.333 84.382 C 222.989 84.208,223.699 84.175,227.417 84.194 C 229.892 84.206,231.715 84.247,231.468 84.285 " stroke="none" fill="#f5f9fc" fill-rule="evenodd"></path><path id="path1" d="M45.572 28.549 C 45.261 28.724,45.211 124.568,45.522 124.943 C 45.716 125.176,173.131 125.298,173.736 125.066 C 173.976 124.974,174.000 120.560,174.000 76.732 L 174.000 28.500 173.458 28.499 C 143.974 28.417,45.739 28.456,45.572 28.549 M67.766 47.684 C 68.074 48.025,68.086 48.727,68.167 71.837 C 68.212 84.928,68.312 95.701,68.389 95.778 C 68.465 95.854,75.103 95.954,83.139 96.000 C 100.962 96.102,99.167 95.745,99.167 99.180 C 99.167 101.409,99.029 101.723,97.968 101.914 C 97.665 101.969,89.412 101.992,79.630 101.965 L 61.843 101.917 61.463 101.537 L 61.083 101.157 61.040 74.679 L 60.996 48.200 61.511 47.767 C 62.241 47.152,67.225 47.086,67.766 47.684 M111.488 47.494 C 111.653 47.582,111.881 47.879,111.995 48.155 C 112.109 48.430,112.332 48.697,112.491 48.747 C 112.650 48.798,112.883 49.044,113.010 49.294 C 113.136 49.545,113.448 50.064,113.703 50.447 C 113.958 50.830,114.167 51.189,114.167 51.245 C 114.167 51.301,114.308 51.499,114.482 51.685 C 114.655 51.871,114.890 52.358,115.005 52.766 C 115.119 53.175,115.305 53.563,115.417 53.630 C 115.672 53.780,116.167 54.730,116.167 55.069 C 116.167 55.208,116.316 55.402,116.499 55.499 C 116.695 55.604,116.910 55.988,117.022 56.435 C 117.127 56.852,117.356 57.281,117.531 57.388 C 117.707 57.495,118.078 58.033,118.357 58.583 C 118.635 59.133,119.119 59.914,119.432 60.319 C 119.744 60.724,120.000 61.175,120.000 61.322 C 120.000 61.469,120.177 61.850,120.393 62.170 C 120.609 62.489,120.844 62.938,120.916 63.167 C 120.987 63.396,121.260 63.830,121.522 64.131 C 121.785 64.432,122.000 64.823,122.000 65.000 C 122.000 65.177,122.209 65.568,122.464 65.869 C 123.124 66.649,123.833 67.785,123.833 68.064 C 123.833 68.195,124.096 68.616,124.417 69.000 C 124.737 69.384,125.000 69.800,125.000 69.925 C 125.000 70.050,125.187 70.428,125.416 70.765 C 125.645 71.103,125.906 71.650,125.995 71.981 C 126.085 72.312,126.307 72.676,126.488 72.788 C 126.669 72.901,126.911 73.303,127.024 73.683 C 127.138 74.062,127.423 74.576,127.657 74.826 C 128.344 75.557,128.646 76.018,128.938 76.782 C 129.089 77.177,129.264 77.500,129.327 77.500 C 129.391 77.500,129.624 77.894,129.846 78.375 C 130.068 78.856,130.334 79.325,130.437 79.417 C 130.541 79.508,130.760 79.958,130.924 80.417 C 131.088 80.875,131.376 81.375,131.564 81.528 C 131.752 81.681,131.993 82.056,132.100 82.361 L 132.293 82.917 132.416 82.454 C 132.483 82.200,132.673 81.898,132.839 81.782 C 133.004 81.666,133.438 80.993,133.804 80.287 C 134.169 79.580,134.663 78.771,134.901 78.488 C 135.139 78.206,135.333 77.909,135.333 77.829 C 135.333 77.749,135.521 77.481,135.750 77.234 C 135.979 76.987,136.242 76.505,136.334 76.164 C 136.426 75.824,136.677 75.366,136.893 75.147 C 137.108 74.929,137.414 74.356,137.572 73.875 C 137.731 73.394,137.918 73.000,137.988 73.000 C 138.058 73.000,138.258 72.681,138.431 72.292 C 138.604 71.902,138.953 71.272,139.206 70.892 C 139.459 70.513,139.667 70.130,139.667 70.043 C 139.667 69.956,139.817 69.749,140.000 69.583 C 140.183 69.417,140.334 69.200,140.334 69.099 C 140.335 68.999,140.560 68.789,140.834 68.633 C 141.181 68.436,141.333 68.221,141.333 67.930 C 141.333 67.472,141.821 66.333,142.017 66.333 C 142.085 66.333,142.263 65.963,142.414 65.509 C 142.564 65.056,142.822 64.513,142.987 64.301 C 143.152 64.090,143.467 63.588,143.685 63.187 C 143.904 62.785,144.189 62.263,144.317 62.027 C 144.446 61.791,144.684 61.455,144.846 61.281 C 145.008 61.107,145.227 60.758,145.331 60.505 C 145.436 60.252,145.697 59.951,145.912 59.836 C 146.191 59.686,146.332 59.425,146.409 58.912 C 146.469 58.512,146.682 58.024,146.893 57.806 C 147.100 57.592,147.357 57.114,147.464 56.744 C 147.571 56.374,147.799 55.921,147.971 55.736 C 148.142 55.552,148.350 55.209,148.433 54.974 C 148.516 54.738,148.752 54.329,148.958 54.065 C 149.622 53.211,150.167 52.324,150.167 52.097 C 150.167 51.975,150.422 51.596,150.734 51.256 C 151.051 50.910,151.383 50.312,151.486 49.902 C 151.588 49.497,151.730 49.167,151.802 49.167 C 151.875 49.167,152.147 48.829,152.408 48.416 C 153.047 47.406,153.492 47.294,156.620 47.362 C 158.785 47.409,159.199 47.460,159.453 47.714 C 159.735 47.997,159.750 49.313,159.750 74.585 L 159.750 101.157 159.371 101.537 C 158.795 102.113,153.697 102.217,152.833 101.670 C 152.614 101.532,152.573 99.089,152.500 81.881 C 152.454 71.084,152.352 62.150,152.273 62.028 C 152.165 61.861,152.053 61.933,151.817 62.319 C 151.646 62.602,151.435 62.833,151.349 62.833 C 151.264 62.833,151.071 63.203,150.921 63.654 C 150.771 64.105,150.540 64.564,150.408 64.674 C 150.276 64.783,150.080 65.167,149.973 65.526 C 149.865 65.885,149.612 66.357,149.410 66.575 C 149.208 66.793,148.963 67.199,148.866 67.477 C 148.769 67.755,148.310 68.560,147.845 69.265 C 147.380 69.969,147.000 70.634,147.000 70.742 C 147.000 70.850,146.779 71.150,146.508 71.409 C 146.238 71.668,145.971 72.087,145.915 72.339 C 145.860 72.592,145.668 72.931,145.490 73.093 C 145.311 73.254,145.084 73.693,144.985 74.068 C 144.886 74.443,144.632 74.938,144.421 75.167 C 144.210 75.396,143.981 75.771,143.913 76.000 C 143.845 76.229,143.425 76.960,142.980 77.625 C 142.535 78.289,142.065 79.088,141.935 79.399 C 141.804 79.711,141.590 80.030,141.458 80.108 C 141.326 80.186,141.086 80.601,140.924 81.031 C 140.762 81.460,140.529 81.851,140.405 81.898 C 140.282 81.945,140.060 82.400,139.912 82.909 C 139.764 83.417,139.584 83.833,139.512 83.833 C 139.440 83.833,139.057 84.476,138.661 85.261 C 138.265 86.047,137.779 86.816,137.581 86.972 C 137.384 87.127,137.170 87.466,137.105 87.725 C 137.040 87.984,136.809 88.373,136.592 88.590 C 136.375 88.807,136.105 89.269,135.992 89.617 C 135.809 90.177,135.449 90.713,134.586 91.708 C 134.295 92.044,130.911 92.143,130.331 91.832 C 129.938 91.622,128.500 89.769,128.499 89.471 C 128.499 89.349,128.274 88.912,128.000 88.500 C 127.726 88.087,127.501 87.621,127.501 87.464 C 127.500 87.307,127.286 86.932,127.025 86.631 C 126.764 86.330,126.498 85.871,126.435 85.612 C 126.372 85.353,126.032 84.776,125.680 84.330 C 125.328 83.884,124.867 83.159,124.657 82.718 C 124.446 82.277,124.188 81.864,124.082 81.800 C 123.977 81.735,123.750 81.360,123.578 80.966 C 123.406 80.572,123.131 80.071,122.966 79.853 C 122.802 79.635,122.586 79.153,122.486 78.783 C 122.387 78.412,122.127 77.969,121.909 77.797 C 121.691 77.626,121.463 77.223,121.403 76.902 C 121.343 76.582,121.096 76.106,120.855 75.845 C 120.034 74.957,119.333 73.848,119.333 73.439 C 119.333 73.289,119.272 73.167,119.196 73.167 C 119.121 73.167,118.882 72.812,118.666 72.379 C 118.450 71.946,118.105 71.345,117.901 71.044 C 117.696 70.742,117.479 70.200,117.417 69.838 C 117.347 69.422,117.198 69.146,117.012 69.087 C 116.713 68.992,116.333 68.340,116.333 67.921 C 116.333 67.794,116.220 67.577,116.081 67.438 C 115.448 66.805,114.683 65.629,114.007 64.252 C 113.602 63.428,113.135 62.640,112.968 62.502 C 112.800 62.363,112.559 61.913,112.432 61.500 C 112.230 60.849,112.197 63.412,112.183 80.867 C 112.166 101.930,112.174 101.703,111.438 101.900 C 110.819 102.066,106.374 102.007,105.899 101.827 C 104.954 101.467,105.011 103.202,105.005 74.657 C 105.000 46.693,104.965 47.955,105.750 47.526 C 106.167 47.298,111.070 47.270,111.488 47.494 " stroke="none" fill="#63b4f4" fill-rule="evenodd"></path><path id="path2" d="M62.482 48.269 C 62.285 48.328,62.185 48.646,62.108 49.466 C 61.916 51.501,61.983 99.785,62.179 100.564 C 62.471 101.724,61.526 101.667,80.368 101.667 C 100.356 101.667,98.083 101.987,98.083 99.166 C 98.083 96.356,99.987 96.667,82.743 96.667 C 69.736 96.667,68.163 96.639,67.929 96.405 C 67.693 96.169,67.665 93.832,67.654 73.280 C 67.643 50.903,67.604 48.871,67.188 48.454 C 66.984 48.251,63.064 48.096,62.482 48.269 M106.475 48.278 C 106.324 48.318,106.157 48.516,106.103 48.717 C 105.935 49.342,105.986 100.442,106.155 100.885 C 106.485 101.755,110.354 101.995,111.333 101.206 C 111.379 101.169,111.454 91.973,111.500 80.770 C 111.579 61.339,111.597 60.380,111.891 59.933 C 112.239 59.401,112.294 59.435,112.934 60.583 C 113.945 62.398,115.405 64.883,116.111 65.992 C 116.371 66.401,116.678 66.996,116.794 67.315 C 116.909 67.634,117.108 68.012,117.235 68.156 C 117.362 68.299,117.691 68.829,117.966 69.333 C 118.241 69.837,118.844 70.887,119.308 71.667 C 119.771 72.446,120.292 73.385,120.466 73.754 C 120.639 74.122,120.908 74.551,121.064 74.707 C 121.220 74.863,121.535 75.386,121.764 75.870 C 121.993 76.354,122.513 77.313,122.920 78.000 C 123.327 78.688,123.881 79.662,124.150 80.167 C 124.420 80.671,124.833 81.342,125.070 81.657 C 125.306 81.973,125.500 82.318,125.500 82.424 C 125.500 82.530,125.719 82.919,125.987 83.289 C 126.255 83.659,126.639 84.345,126.841 84.814 C 127.043 85.283,127.261 85.667,127.327 85.667 C 127.393 85.667,127.539 85.873,127.651 86.125 C 128.009 86.926,130.402 90.856,130.784 91.269 C 131.193 91.712,132.389 91.814,133.500 91.500 C 134.126 91.324,134.963 90.214,135.663 88.632 C 135.853 88.200,136.085 87.800,136.178 87.743 C 136.270 87.686,136.520 87.289,136.732 86.861 C 137.302 85.715,137.974 84.534,138.640 83.507 C 139.205 82.636,139.681 81.797,140.534 80.167 C 140.750 79.754,141.126 79.117,141.370 78.750 C 141.614 78.383,141.863 77.877,141.925 77.625 C 141.986 77.373,142.094 77.167,142.166 77.167 C 142.237 77.167,142.535 76.698,142.827 76.125 C 143.120 75.552,143.457 74.971,143.576 74.833 C 143.817 74.555,144.962 72.574,145.694 71.167 C 145.957 70.662,146.707 69.350,147.361 68.250 C 149.043 65.424,150.154 63.525,150.579 62.750 C 150.780 62.383,151.226 61.578,151.569 60.961 L 152.194 59.839 152.657 60.079 C 153.345 60.434,153.330 59.942,153.331 81.031 C 153.333 92.939,153.395 100.640,153.492 100.896 C 153.959 102.125,158.478 101.900,158.731 100.635 C 158.921 99.687,158.848 49.394,158.656 48.889 C 158.396 48.205,158.275 48.172,156.034 48.169 L 153.984 48.167 153.146 49.005 C 152.653 49.498,152.115 50.269,151.838 50.880 C 151.579 51.451,151.217 52.054,151.032 52.221 C 150.848 52.388,150.647 52.725,150.586 52.971 C 150.525 53.216,150.218 53.804,149.904 54.278 C 149.590 54.752,149.333 55.177,149.333 55.222 C 149.333 55.267,148.810 56.172,148.170 57.233 C 147.530 58.295,146.896 59.425,146.762 59.746 C 146.628 60.067,146.297 60.612,146.026 60.957 C 145.755 61.301,145.480 61.771,145.414 62.000 C 145.348 62.229,145.196 62.529,145.077 62.667 C 144.957 62.804,144.321 63.854,143.663 65.000 C 143.005 66.146,142.362 67.201,142.235 67.344 C 142.108 67.488,141.909 67.866,141.794 68.185 C 141.678 68.504,141.371 69.099,141.111 69.508 C 140.852 69.916,140.016 71.337,139.253 72.667 C 138.491 73.996,137.644 75.424,137.372 75.841 C 137.100 76.257,136.820 76.779,136.750 77.000 C 136.680 77.221,136.332 77.827,135.978 78.346 C 135.623 78.866,135.333 79.342,135.333 79.405 C 135.333 79.579,133.000 83.412,132.568 83.948 L 132.190 84.417 131.824 83.594 C 131.622 83.141,131.241 82.473,130.978 82.110 C 130.715 81.747,130.500 81.388,130.500 81.313 C 130.500 81.237,129.938 80.236,129.250 79.089 C 128.563 77.941,128.000 76.958,128.000 76.904 C 128.000 76.851,127.744 76.419,127.430 75.945 C 127.117 75.471,126.762 74.858,126.642 74.583 C 126.522 74.308,126.215 73.791,125.962 73.433 C 125.708 73.076,125.500 72.718,125.500 72.638 C 125.500 72.558,125.324 72.213,125.109 71.871 C 124.674 71.181,123.490 69.202,122.805 68.018 C 122.389 67.299,122.064 66.713,120.579 64.007 C 120.254 63.415,119.890 62.815,119.770 62.673 C 119.649 62.532,119.502 62.280,119.442 62.112 C 119.383 61.944,119.062 61.397,118.729 60.897 C 118.114 59.970,117.762 59.353,116.849 57.598 C 116.566 57.055,116.228 56.493,116.096 56.347 C 115.964 56.202,115.779 55.895,115.683 55.666 C 115.588 55.437,115.060 54.500,114.510 53.583 C 113.959 52.667,113.316 51.555,113.079 51.114 C 112.161 49.398,111.291 48.372,110.667 48.267 C 110.010 48.158,106.898 48.166,106.475 48.278 M66.538 49.188 C 66.809 49.332,66.829 50.764,66.872 72.879 C 66.908 91.682,66.960 96.492,67.131 96.792 L 67.345 97.167 82.331 97.167 L 97.318 97.167 97.491 97.792 C 97.710 98.580,97.717 100.179,97.504 100.739 L 97.342 101.167 80.314 101.167 C 64.293 101.167,63.274 101.149,63.065 100.875 C 62.747 100.456,62.725 49.464,63.042 49.201 C 63.479 48.838,65.866 48.829,66.538 49.188 M110.686 49.025 C 111.073 49.141,111.369 49.350,111.433 49.551 C 111.491 49.735,111.704 50.042,111.906 50.234 C 112.108 50.426,112.403 50.911,112.560 51.311 C 112.718 51.712,113.020 52.274,113.232 52.561 C 113.443 52.848,113.791 53.458,114.004 53.917 C 114.216 54.375,114.602 55.064,114.862 55.447 C 115.121 55.830,115.333 56.207,115.333 56.284 C 115.333 56.361,115.544 56.685,115.802 57.004 C 116.060 57.322,116.435 57.940,116.636 58.375 C 116.837 58.810,117.059 59.167,117.128 59.167 C 117.198 59.167,117.382 59.523,117.537 59.958 C 117.692 60.394,117.937 60.900,118.081 61.083 C 118.225 61.267,118.688 62.017,119.108 62.750 C 120.794 65.687,121.033 66.084,121.167 66.167 C 121.244 66.214,121.358 66.456,121.420 66.703 C 121.482 66.951,121.717 67.353,121.943 67.596 C 122.169 67.840,122.505 68.423,122.690 68.893 C 122.875 69.363,123.085 69.785,123.157 69.832 C 123.228 69.878,123.419 70.179,123.580 70.500 C 123.980 71.298,125.448 73.764,126.026 74.611 C 126.287 74.992,126.500 75.373,126.500 75.456 C 126.500 75.540,126.763 75.977,127.083 76.428 C 127.404 76.880,127.667 77.332,127.667 77.433 C 127.667 77.659,129.353 80.657,130.017 81.611 C 130.283 81.992,130.500 82.373,130.500 82.457 C 130.500 82.540,130.688 82.785,130.917 83.000 C 131.146 83.215,131.333 83.467,131.333 83.560 C 131.333 83.925,132.043 85.167,132.252 85.167 C 132.507 85.167,133.667 83.869,133.667 83.583 C 133.667 83.478,133.890 83.098,134.162 82.738 C 134.434 82.378,134.659 82.017,134.662 81.935 C 134.665 81.854,134.880 81.440,135.141 81.017 C 135.401 80.593,135.705 79.972,135.816 79.637 C 135.926 79.301,136.138 78.927,136.286 78.805 C 136.433 78.683,136.704 78.246,136.886 77.833 C 137.069 77.421,137.426 76.821,137.679 76.500 C 137.932 76.179,138.569 75.129,139.093 74.167 C 139.618 73.204,140.174 72.229,140.328 72.000 C 140.483 71.771,140.699 71.323,140.809 71.005 C 140.919 70.686,141.185 70.236,141.401 70.005 C 141.617 69.773,141.883 69.303,141.992 68.961 C 142.101 68.618,142.259 68.296,142.341 68.245 C 142.718 68.012,145.833 62.610,145.833 62.189 C 145.833 62.103,146.096 61.717,146.417 61.333 C 146.737 60.949,147.000 60.559,147.000 60.467 C 147.000 60.374,147.225 59.965,147.500 59.557 C 147.775 59.150,148.000 58.792,148.000 58.763 C 148.000 58.733,148.412 58.022,148.917 57.181 C 149.421 56.341,149.833 55.599,149.833 55.532 C 149.833 55.465,150.009 55.150,150.223 54.830 C 150.437 54.511,150.698 53.999,150.803 53.692 C 150.908 53.385,151.220 52.876,151.497 52.561 C 151.774 52.246,152.000 51.917,152.000 51.829 C 152.000 51.577,153.490 49.447,153.889 49.129 C 154.362 48.751,156.788 48.715,157.485 49.075 C 158.183 49.437,158.167 48.798,158.167 75.462 L 158.167 100.044 157.820 100.605 L 157.473 101.167 156.111 101.161 C 153.823 101.152,154.096 103.873,154.000 80.118 C 153.911 58.084,153.935 58.663,153.098 58.669 C 152.292 58.674,152.018 58.882,151.489 59.891 C 151.193 60.455,150.758 61.287,150.522 61.739 C 150.287 62.191,149.923 62.746,149.714 62.972 C 149.504 63.197,149.333 63.469,149.333 63.575 C 149.333 63.680,149.033 64.229,148.667 64.793 C 148.300 65.357,147.591 66.609,147.092 67.574 C 146.593 68.539,146.037 69.487,145.856 69.681 C 145.676 69.874,145.480 70.222,145.422 70.453 C 145.364 70.684,145.107 71.146,144.849 71.478 C 144.592 71.811,144.282 72.346,144.161 72.667 C 144.040 72.987,143.737 73.512,143.489 73.833 C 143.241 74.154,142.874 74.754,142.672 75.167 C 142.471 75.579,142.238 76.029,142.153 76.167 C 142.069 76.304,141.813 76.817,141.586 77.306 C 141.359 77.795,140.984 78.419,140.753 78.694 C 140.522 78.968,140.333 79.288,140.333 79.404 C 140.333 79.520,140.176 79.796,139.983 80.016 C 139.791 80.236,139.407 80.867,139.132 81.417 C 138.856 81.967,138.461 82.642,138.255 82.917 C 138.048 83.192,137.710 83.792,137.504 84.250 C 137.298 84.709,137.038 85.196,136.925 85.333 C 136.813 85.471,136.620 85.846,136.496 86.167 C 136.372 86.487,136.060 87.011,135.802 87.330 C 135.544 87.648,135.333 87.986,135.333 88.080 C 135.333 88.174,135.071 88.620,134.750 89.072 C 134.429 89.523,134.167 89.947,134.167 90.013 C 134.167 90.602,133.060 91.333,132.171 91.333 L 131.236 91.333 130.791 90.458 C 130.390 89.672,129.859 88.733,128.835 87.000 C 128.645 86.679,128.313 86.101,128.096 85.715 C 127.879 85.329,127.544 84.813,127.351 84.568 C 127.158 84.322,127.000 84.022,127.000 83.900 C 127.000 83.778,126.775 83.422,126.499 83.108 C 126.224 82.794,125.896 82.248,125.771 81.894 C 125.527 81.204,123.824 78.178,123.310 77.519 C 123.140 77.301,122.998 77.038,122.995 76.936 C 122.993 76.834,122.768 76.455,122.495 76.095 C 122.223 75.735,122.000 75.352,122.000 75.243 C 122.000 75.134,121.849 74.853,121.664 74.618 C 121.480 74.384,120.963 73.482,120.517 72.616 C 120.070 71.749,119.377 70.498,118.977 69.835 C 118.577 69.172,118.145 68.432,118.016 68.190 C 117.888 67.948,117.613 67.546,117.405 67.296 C 117.198 67.046,116.980 66.620,116.920 66.349 C 116.861 66.078,116.698 65.762,116.559 65.647 C 116.421 65.532,116.047 64.911,115.729 64.268 C 115.411 63.625,115.091 63.020,115.017 62.924 C 114.942 62.829,114.599 62.225,114.254 61.583 C 113.909 60.942,113.523 60.298,113.397 60.154 C 113.270 60.009,113.167 59.833,113.167 59.763 C 113.167 59.308,112.453 58.697,111.854 58.640 L 111.206 58.578 111.020 59.385 C 110.888 59.956,110.833 66.061,110.833 80.240 C 110.833 103.749,111.102 101.167,108.659 101.167 C 106.428 101.167,106.667 104.307,106.667 74.962 C 106.667 47.119,106.587 49.093,107.711 48.954 C 108.853 48.812,110.071 48.841,110.686 49.025 " stroke="none" fill="#badcfc" fill-rule="evenodd"></path><path id="path3" d="M78.195 28.458 C 95.214 28.482,123.114 28.482,140.195 28.458 C 157.275 28.435,143.350 28.416,109.250 28.416 C 75.150 28.416,61.175 28.435,78.195 28.458 M61.958 48.013 C 61.682 48.174,61.667 49.620,61.667 74.671 L 61.667 101.159 62.118 101.454 C 62.542 101.733,63.601 101.750,80.196 101.750 L 97.824 101.750 98.204 101.370 C 98.555 101.020,98.583 100.846,98.583 99.082 C 98.583 96.281,100.492 96.599,83.055 96.500 C 74.973 96.454,68.298 96.354,68.222 96.278 C 68.146 96.201,68.046 85.473,68.000 72.437 C 67.921 50.108,67.900 48.709,67.621 48.284 L 67.326 47.833 64.788 47.838 C 63.376 47.841,62.121 47.919,61.958 48.013 M105.776 48.138 C 105.496 48.448,105.326 99.421,105.600 100.793 C 105.763 101.607,106.251 101.750,108.874 101.750 C 112.246 101.750,111.833 104.645,111.833 81.006 C 111.833 66.475,111.885 60.901,112.024 60.504 L 112.214 59.958 112.732 60.959 C 113.200 61.864,114.473 64.146,115.359 65.667 C 115.546 65.987,115.832 66.400,115.996 66.583 C 116.160 66.767,116.455 67.289,116.653 67.744 C 116.851 68.199,117.073 68.612,117.146 68.661 C 117.219 68.710,117.596 69.387,117.983 70.165 C 118.371 70.943,118.937 71.956,119.242 72.415 C 119.546 72.874,119.966 73.587,120.175 74.000 C 120.383 74.412,120.697 74.910,120.871 75.106 C 121.046 75.301,121.412 75.901,121.685 76.439 C 121.958 76.977,122.515 78.017,122.923 78.750 C 123.332 79.483,123.748 80.290,123.849 80.542 C 123.950 80.794,124.100 81.000,124.183 81.000 C 124.266 81.000,124.333 81.103,124.333 81.230 C 124.333 81.356,124.439 81.546,124.567 81.653 C 124.696 81.760,124.987 82.238,125.213 82.715 C 125.440 83.193,125.782 83.724,125.973 83.895 C 126.164 84.067,126.409 84.479,126.517 84.812 C 126.625 85.144,126.871 85.642,127.065 85.917 C 127.258 86.192,127.584 86.754,127.788 87.167 C 127.992 87.579,128.231 88.029,128.318 88.167 C 128.405 88.304,128.756 88.904,129.096 89.500 C 129.437 90.096,129.983 90.865,130.309 91.208 L 130.901 91.833 132.300 91.833 C 134.240 91.833,135.051 91.150,135.992 88.720 C 136.105 88.429,136.340 88.061,136.515 87.903 C 136.690 87.745,136.833 87.524,136.833 87.413 C 136.833 87.302,137.133 86.770,137.500 86.231 C 137.866 85.691,138.166 85.196,138.166 85.130 C 138.166 85.064,138.494 84.502,138.895 83.880 C 139.295 83.259,139.681 82.563,139.752 82.333 C 139.823 82.104,140.051 81.692,140.258 81.417 C 140.465 81.142,140.757 80.618,140.908 80.252 C 141.059 79.887,141.323 79.437,141.496 79.252 C 141.668 79.068,141.860 78.710,141.923 78.457 C 141.986 78.204,142.102 77.956,142.183 77.907 C 142.263 77.857,142.639 77.277,143.019 76.617 C 143.400 75.957,143.963 75.029,144.272 74.555 C 144.581 74.081,144.833 73.590,144.833 73.462 C 144.833 73.335,145.014 72.987,145.234 72.688 C 145.455 72.389,145.730 71.905,145.845 71.614 C 145.960 71.322,146.184 70.933,146.344 70.750 C 146.503 70.567,146.772 70.142,146.942 69.806 C 147.111 69.471,147.823 68.261,148.524 67.118 C 149.225 65.976,149.854 64.863,149.922 64.646 C 149.990 64.428,150.186 64.071,150.356 63.853 C 150.527 63.634,150.667 63.387,150.667 63.304 C 150.667 63.220,150.967 62.691,151.333 62.126 C 151.700 61.562,152.000 61.003,152.000 60.884 C 152.000 60.541,152.301 60.630,152.536 61.042 C 152.706 61.339,152.767 65.528,152.833 81.285 C 152.916 100.908,152.921 101.156,153.250 101.404 C 154.085 102.035,158.231 102.009,158.871 101.369 L 159.250 100.991 159.296 74.704 L 159.341 48.417 158.985 48.125 C 158.682 47.876,158.265 47.833,156.153 47.833 L 153.675 47.833 152.956 48.553 C 152.560 48.948,151.952 49.848,151.604 50.553 C 151.256 51.257,150.913 51.833,150.842 51.833 C 150.770 51.833,150.579 52.190,150.417 52.625 C 150.255 53.060,150.000 53.567,149.850 53.750 C 149.431 54.263,148.833 55.142,148.833 55.247 C 148.833 55.298,148.629 55.657,148.379 56.045 C 148.129 56.433,147.788 57.049,147.620 57.414 C 147.452 57.779,147.218 58.191,147.100 58.330 C 146.982 58.469,146.756 58.917,146.597 59.325 C 146.439 59.733,146.090 60.317,145.821 60.622 C 145.553 60.928,145.333 61.277,145.333 61.397 C 145.333 61.518,145.108 61.927,144.833 62.307 C 144.558 62.687,144.333 63.040,144.333 63.093 C 144.333 63.146,144.153 63.428,143.933 63.719 C 143.712 64.011,143.246 64.813,142.895 65.500 C 142.545 66.188,142.165 66.847,142.050 66.966 C 141.936 67.085,141.761 67.482,141.662 67.850 C 141.563 68.217,141.323 68.677,141.128 68.872 C 140.934 69.066,140.619 69.505,140.429 69.846 C 140.239 70.187,139.598 71.280,139.004 72.275 C 138.411 73.270,137.762 74.430,137.563 74.855 C 137.364 75.279,137.124 75.673,137.030 75.731 C 136.936 75.789,136.728 76.192,136.567 76.627 C 136.406 77.061,136.138 77.550,135.972 77.713 C 135.806 77.876,135.545 78.251,135.393 78.547 C 135.240 78.842,134.986 79.271,134.829 79.500 C 134.671 79.729,134.177 80.542,133.730 81.306 C 133.283 82.071,132.803 82.887,132.664 83.120 C 132.342 83.661,132.188 83.589,131.694 82.667 C 131.231 81.804,130.354 80.184,129.888 79.333 C 129.712 79.012,129.357 78.420,129.099 78.016 C 128.841 77.612,128.455 76.953,128.242 76.552 C 128.029 76.151,127.662 75.594,127.427 75.315 C 127.192 75.036,127.000 74.711,127.000 74.594 C 127.000 74.476,126.818 74.112,126.596 73.784 C 126.373 73.456,125.764 72.377,125.241 71.386 C 124.719 70.394,124.051 69.246,123.757 68.833 C 123.464 68.421,123.128 67.842,123.010 67.547 C 122.893 67.252,122.685 66.918,122.548 66.804 C 122.411 66.690,122.115 66.219,121.891 65.757 C 121.667 65.295,121.274 64.542,121.017 64.083 C 120.760 63.625,120.311 62.814,120.021 62.280 C 119.730 61.747,119.156 60.810,118.746 60.199 C 118.336 59.587,118.000 58.995,118.000 58.883 C 118.000 58.770,117.786 58.432,117.524 58.131 C 117.262 57.830,116.956 57.303,116.845 56.961 C 116.734 56.618,116.573 56.295,116.488 56.243 C 116.404 56.190,116.153 55.758,115.932 55.282 C 115.711 54.806,115.336 54.158,115.098 53.843 C 114.861 53.527,114.667 53.189,114.666 53.093 C 114.666 52.996,114.347 52.429,113.958 51.833 C 113.569 51.237,113.160 50.549,113.051 50.303 C 112.941 50.058,112.498 49.401,112.065 48.845 L 111.280 47.833 108.666 47.833 C 106.345 47.833,106.021 47.868,105.776 48.138 M67.188 48.454 C 67.604 48.871,67.643 50.903,67.654 73.280 C 67.665 93.832,67.693 96.169,67.929 96.405 C 68.163 96.639,69.736 96.667,82.743 96.667 C 99.987 96.667,98.083 96.356,98.083 99.166 C 98.083 101.987,100.356 101.667,80.368 101.667 C 61.526 101.667,62.471 101.724,62.179 100.564 C 61.983 99.785,61.916 51.501,62.108 49.466 C 62.185 48.646,62.285 48.328,62.482 48.269 C 63.064 48.096,66.984 48.251,67.188 48.454 M110.667 48.267 C 111.291 48.372,112.161 49.398,113.079 51.114 C 113.316 51.555,113.959 52.667,114.510 53.583 C 115.060 54.500,115.588 55.437,115.683 55.666 C 115.779 55.895,115.964 56.202,116.096 56.347 C 116.228 56.493,116.566 57.055,116.849 57.598 C 117.762 59.353,118.114 59.970,118.729 60.897 C 119.062 61.397,119.383 61.944,119.442 62.112 C 119.502 62.280,119.649 62.532,119.770 62.673 C 119.890 62.815,120.254 63.415,120.579 64.007 C 122.064 66.713,122.389 67.299,122.805 68.018 C 123.490 69.202,124.674 71.181,125.109 71.871 C 125.324 72.213,125.500 72.558,125.500 72.638 C 125.500 72.718,125.708 73.076,125.962 73.433 C 126.215 73.791,126.522 74.308,126.642 74.583 C 126.762 74.858,127.117 75.471,127.430 75.945 C 127.744 76.419,128.000 76.851,128.000 76.904 C 128.000 76.958,128.563 77.941,129.250 79.089 C 129.938 80.236,130.500 81.237,130.500 81.313 C 130.500 81.388,130.715 81.747,130.978 82.110 C 131.241 82.473,131.622 83.141,131.824 83.594 L 132.190 84.417 132.568 83.948 C 133.000 83.412,135.333 79.579,135.333 79.405 C 135.333 79.342,135.623 78.866,135.978 78.346 C 136.332 77.827,136.680 77.221,136.750 77.000 C 136.820 76.779,137.100 76.257,137.372 75.841 C 137.644 75.424,138.491 73.996,139.253 72.667 C 140.016 71.337,140.852 69.916,141.111 69.508 C 141.371 69.099,141.678 68.504,141.794 68.185 C 141.909 67.866,142.108 67.488,142.235 67.344 C 142.362 67.201,143.005 66.146,143.663 65.000 C 144.321 63.854,144.957 62.804,145.077 62.667 C 145.196 62.529,145.348 62.229,145.414 62.000 C 145.480 61.771,145.755 61.301,146.026 60.957 C 146.297 60.612,146.628 60.067,146.762 59.746 C 146.896 59.425,147.530 58.295,148.170 57.233 C 148.810 56.172,149.333 55.267,149.333 55.222 C 149.333 55.177,149.590 54.752,149.904 54.278 C 150.218 53.804,150.525 53.216,150.586 52.971 C 150.647 52.725,150.848 52.388,151.032 52.221 C 151.217 52.054,151.579 51.451,151.838 50.880 C 152.115 50.269,152.653 49.498,153.146 49.005 L 153.984 48.167 156.034 48.169 C 158.275 48.172,158.396 48.205,158.656 48.889 C 158.848 49.394,158.921 99.687,158.731 100.635 C 158.478 101.900,153.959 102.125,153.492 100.896 C 153.395 100.640,153.333 92.939,153.331 81.031 C 153.330 59.942,153.345 60.434,152.657 60.079 L 152.194 59.839 151.569 60.961 C 151.226 61.578,150.780 62.383,150.579 62.750 C 150.154 63.525,149.043 65.424,147.361 68.250 C 146.707 69.350,145.957 70.662,145.694 71.167 C 144.962 72.574,143.817 74.555,143.576 74.833 C 143.457 74.971,143.120 75.552,142.827 76.125 C 142.535 76.698,142.237 77.167,142.166 77.167 C 142.094 77.167,141.986 77.373,141.925 77.625 C 141.863 77.877,141.614 78.383,141.370 78.750 C 141.126 79.117,140.750 79.754,140.534 80.167 C 139.681 81.797,139.205 82.636,138.640 83.507 C 137.974 84.534,137.302 85.715,136.732 86.861 C 136.520 87.289,136.270 87.686,136.178 87.743 C 136.085 87.800,135.853 88.200,135.663 88.632 C 134.963 90.214,134.126 91.324,133.500 91.500 C 132.389 91.814,131.193 91.712,130.784 91.269 C 130.402 90.856,128.009 86.926,127.651 86.125 C 127.539 85.873,127.393 85.667,127.327 85.667 C 127.261 85.667,127.043 85.283,126.841 84.814 C 126.639 84.345,126.255 83.659,125.987 83.289 C 125.719 82.919,125.500 82.530,125.500 82.424 C 125.500 82.318,125.306 81.973,125.070 81.657 C 124.833 81.342,124.420 80.671,124.150 80.167 C 123.881 79.662,123.327 78.688,122.920 78.000 C 122.513 77.313,121.993 76.354,121.764 75.870 C 121.535 75.386,121.220 74.863,121.064 74.707 C 120.908 74.551,120.639 74.122,120.466 73.754 C 120.292 73.385,119.771 72.446,119.308 71.667 C 118.844 70.887,118.241 69.837,117.966 69.333 C 117.691 68.829,117.362 68.299,117.235 68.156 C 117.108 68.012,116.909 67.634,116.794 67.315 C 116.678 66.996,116.371 66.401,116.111 65.992 C 115.405 64.883,113.945 62.398,112.934 60.583 C 112.294 59.435,112.239 59.401,111.891 59.933 C 111.597 60.380,111.579 61.339,111.500 80.770 C 111.454 91.973,111.379 101.169,111.333 101.206 C 110.354 101.995,106.485 101.755,106.155 100.885 C 105.986 100.442,105.935 49.342,106.103 48.717 C 106.239 48.209,108.801 47.957,110.667 48.267 " stroke="none" fill="#99cdfa" fill-rule="evenodd"></path><path id="path4" d="M61.511 47.767 L 60.996 48.200 61.040 74.679 L 61.083 101.157 61.463 101.537 L 61.843 101.917 79.630 101.965 C 89.412 101.992,97.665 101.969,97.968 101.914 C 99.029 101.723,99.167 101.409,99.167 99.180 C 99.167 95.745,100.962 96.102,83.139 96.000 C 75.103 95.954,68.465 95.854,68.389 95.778 C 68.312 95.701,68.212 84.928,68.167 71.837 C 68.086 48.727,68.074 48.025,67.766 47.684 C 67.225 47.086,62.241 47.152,61.511 47.767 M105.750 47.526 C 104.965 47.955,105.000 46.693,105.005 74.657 C 105.011 103.202,104.954 101.467,105.899 101.827 C 106.374 102.007,110.819 102.066,111.438 101.900 C 112.174 101.703,112.166 101.930,112.183 80.867 C 112.197 63.412,112.230 60.849,112.432 61.500 C 112.559 61.913,112.800 62.363,112.968 62.502 C 113.135 62.640,113.602 63.428,114.007 64.252 C 114.683 65.629,115.448 66.805,116.081 67.438 C 116.220 67.577,116.333 67.794,116.333 67.921 C 116.333 68.340,116.713 68.992,117.012 69.087 C 117.198 69.146,117.347 69.422,117.417 69.838 C 117.479 70.200,117.696 70.742,117.901 71.044 C 118.105 71.345,118.450 71.946,118.666 72.379 C 118.882 72.812,119.121 73.167,119.196 73.167 C 119.272 73.167,119.333 73.289,119.333 73.439 C 119.333 73.848,120.034 74.957,120.855 75.845 C 121.096 76.106,121.343 76.582,121.403 76.902 C 121.463 77.223,121.691 77.626,121.909 77.797 C 122.127 77.969,122.387 78.412,122.486 78.783 C 122.586 79.153,122.802 79.635,122.966 79.853 C 123.131 80.071,123.406 80.572,123.578 80.966 C 123.750 81.360,123.977 81.735,124.082 81.800 C 124.188 81.864,124.446 82.277,124.657 82.718 C 124.867 83.159,125.328 83.884,125.680 84.330 C 126.032 84.776,126.372 85.353,126.435 85.612 C 126.498 85.871,126.764 86.330,127.025 86.631 C 127.286 86.932,127.500 87.307,127.501 87.464 C 127.501 87.621,127.726 88.087,128.000 88.500 C 128.274 88.912,128.499 89.349,128.499 89.471 C 128.500 89.769,129.938 91.622,130.331 91.832 C 130.911 92.143,134.295 92.044,134.586 91.708 C 135.449 90.713,135.809 90.177,135.992 89.617 C 136.105 89.269,136.375 88.807,136.592 88.590 C 136.809 88.373,137.040 87.984,137.105 87.725 C 137.170 87.466,137.384 87.127,137.581 86.972 C 137.779 86.816,138.265 86.047,138.661 85.261 C 139.057 84.476,139.440 83.833,139.512 83.833 C 139.584 83.833,139.764 83.417,139.912 82.909 C 140.060 82.400,140.282 81.945,140.405 81.898 C 140.529 81.851,140.762 81.460,140.924 81.031 C 141.086 80.601,141.326 80.186,141.458 80.108 C 141.590 80.030,141.804 79.711,141.935 79.399 C 142.065 79.088,142.535 78.289,142.980 77.625 C 143.425 76.960,143.845 76.229,143.913 76.000 C 143.981 75.771,144.210 75.396,144.421 75.167 C 144.632 74.938,144.886 74.443,144.985 74.068 C 145.084 73.693,145.311 73.254,145.490 73.093 C 145.668 72.931,145.860 72.592,145.915 72.339 C 145.971 72.087,146.238 71.668,146.508 71.409 C 146.779 71.150,147.000 70.850,147.000 70.742 C 147.000 70.634,147.380 69.969,147.845 69.265 C 148.310 68.560,148.769 67.755,148.866 67.477 C 148.963 67.199,149.208 66.793,149.410 66.575 C 149.612 66.357,149.865 65.885,149.973 65.526 C 150.080 65.167,150.276 64.783,150.408 64.674 C 150.540 64.564,150.771 64.105,150.921 63.654 C 151.071 63.203,151.264 62.833,151.349 62.833 C 151.435 62.833,151.646 62.602,151.817 62.319 C 152.053 61.933,152.165 61.861,152.273 62.028 C 152.352 62.150,152.454 71.084,152.500 81.881 C 152.573 99.089,152.614 101.532,152.833 101.670 C 153.697 102.217,158.795 102.113,159.371 101.537 L 159.750 101.157 159.750 74.585 C 159.750 49.313,159.735 47.997,159.453 47.714 C 159.199 47.460,158.785 47.409,156.620 47.362 C 153.492 47.294,153.047 47.406,152.408 48.416 C 152.147 48.829,151.875 49.167,151.802 49.167 C 151.730 49.167,151.588 49.497,151.486 49.902 C 151.383 50.312,151.051 50.910,150.734 51.256 C 150.422 51.596,150.167 51.975,150.167 52.097 C 150.167 52.324,149.622 53.211,148.958 54.065 C 148.752 54.329,148.516 54.738,148.433 54.974 C 148.350 55.209,148.142 55.552,147.971 55.736 C 147.799 55.921,147.571 56.374,147.464 56.744 C 147.357 57.114,147.100 57.592,146.893 57.806 C 146.682 58.024,146.469 58.512,146.409 58.912 C 146.332 59.425,146.191 59.686,145.912 59.836 C 145.697 59.951,145.436 60.252,145.331 60.505 C 145.227 60.758,145.008 61.107,144.846 61.281 C 144.684 61.455,144.446 61.791,144.317 62.027 C 144.189 62.263,143.904 62.785,143.685 63.187 C 143.467 63.588,143.152 64.090,142.987 64.301 C 142.822 64.513,142.564 65.056,142.414 65.509 C 142.263 65.963,142.085 66.333,142.017 66.333 C 141.821 66.333,141.333 67.472,141.333 67.930 C 141.333 68.221,141.181 68.436,140.834 68.633 C 140.560 68.789,140.335 68.999,140.334 69.099 C 140.334 69.200,140.183 69.417,140.000 69.583 C 139.817 69.749,139.667 69.956,139.667 70.043 C 139.667 70.130,139.459 70.513,139.206 70.892 C 138.953 71.272,138.604 71.902,138.431 72.292 C 138.258 72.681,138.058 73.000,137.988 73.000 C 137.918 73.000,137.731 73.394,137.572 73.875 C 137.414 74.356,137.108 74.929,136.893 75.147 C 136.677 75.366,136.426 75.824,136.334 76.164 C 136.242 76.505,135.979 76.987,135.750 77.234 C 135.521 77.481,135.333 77.749,135.333 77.829 C 135.333 77.909,135.139 78.206,134.901 78.488 C 134.663 78.771,134.169 79.580,133.804 80.287 C 133.438 80.993,133.004 81.666,132.839 81.782 C 132.673 81.898,132.483 82.200,132.416 82.454 L 132.293 82.917 132.100 82.361 C 131.993 82.056,131.752 81.681,131.564 81.528 C 131.376 81.375,131.088 80.875,130.924 80.417 C 130.760 79.958,130.541 79.508,130.437 79.417 C 130.334 79.325,130.068 78.856,129.846 78.375 C 129.624 77.894,129.391 77.500,129.327 77.500 C 129.264 77.500,129.089 77.177,128.938 76.782 C 128.646 76.018,128.344 75.557,127.657 74.826 C 127.423 74.576,127.138 74.062,127.024 73.683 C 126.911 73.303,126.669 72.901,126.488 72.788 C 126.307 72.676,126.085 72.312,125.995 71.981 C 125.906 71.650,125.645 71.103,125.416 70.765 C 125.187 70.428,125.000 70.050,125.000 69.925 C 125.000 69.800,124.737 69.384,124.417 69.000 C 124.096 68.616,123.833 68.195,123.833 68.064 C 123.833 67.785,123.124 66.649,122.464 65.869 C 122.209 65.568,122.000 65.177,122.000 65.000 C 122.000 64.823,121.785 64.432,121.522 64.131 C 121.260 63.830,120.987 63.396,120.916 63.167 C 120.844 62.938,120.609 62.489,120.393 62.170 C 120.177 61.850,120.000 61.469,120.000 61.322 C 120.000 61.175,119.744 60.724,119.432 60.319 C 119.119 59.914,118.635 59.133,118.357 58.583 C 118.078 58.033,117.707 57.495,117.531 57.388 C 117.356 57.281,117.127 56.852,117.022 56.435 C 116.910 55.988,116.695 55.604,116.499 55.499 C 116.316 55.402,116.167 55.208,116.167 55.069 C 116.167 54.730,115.672 53.780,115.417 53.630 C 115.305 53.563,115.119 53.175,115.005 52.766 C 114.890 52.358,114.655 51.871,114.482 51.685 C 114.308 51.499,114.167 51.301,114.167 51.245 C 114.167 51.189,113.958 50.830,113.703 50.447 C 113.448 50.064,113.136 49.545,113.010 49.294 C 112.883 49.044,112.650 48.798,112.491 48.747 C 112.332 48.697,112.109 48.430,111.995 48.155 C 111.881 47.879,111.653 47.582,111.488 47.494 C 111.070 47.270,106.167 47.298,105.750 47.526 M67.621 48.284 C 67.900 48.709,67.921 50.108,68.000 72.437 C 68.046 85.473,68.146 96.201,68.222 96.278 C 68.298 96.354,74.973 96.454,83.055 96.500 C 100.492 96.599,98.583 96.281,98.583 99.082 C 98.583 100.846,98.555 101.020,98.204 101.370 L 97.824 101.750 80.196 101.750 C 63.601 101.750,62.542 101.733,62.118 101.454 L 61.667 101.159 61.667 74.671 C 61.667 49.620,61.682 48.174,61.958 48.013 C 62.121 47.919,63.376 47.841,64.788 47.838 L 67.326 47.833 67.621 48.284 M112.065 48.845 C 112.498 49.401,112.941 50.058,113.051 50.303 C 113.160 50.549,113.569 51.237,113.958 51.833 C 114.347 52.429,114.666 52.996,114.666 53.093 C 114.667 53.189,114.861 53.527,115.098 53.843 C 115.336 54.158,115.711 54.806,115.932 55.282 C 116.153 55.758,116.404 56.190,116.488 56.243 C 116.573 56.295,116.734 56.618,116.845 56.961 C 116.956 57.303,117.262 57.830,117.524 58.131 C 117.786 58.432,118.000 58.770,118.000 58.883 C 118.000 58.995,118.336 59.587,118.746 60.199 C 119.156 60.810,119.730 61.747,120.021 62.280 C 120.311 62.814,120.760 63.625,121.017 64.083 C 121.274 64.542,121.667 65.295,121.891 65.757 C 122.115 66.219,122.411 66.690,122.548 66.804 C 122.685 66.918,122.893 67.252,123.010 67.547 C 123.128 67.842,123.464 68.421,123.757 68.833 C 124.051 69.246,124.719 70.394,125.241 71.386 C 125.764 72.377,126.373 73.456,126.596 73.784 C 126.818 74.112,127.000 74.476,127.000 74.594 C 127.000 74.711,127.192 75.036,127.427 75.315 C 127.662 75.594,128.029 76.151,128.242 76.552 C 128.455 76.953,128.841 77.612,129.099 78.016 C 129.357 78.420,129.712 79.012,129.888 79.333 C 130.354 80.184,131.231 81.804,131.694 82.667 C 132.188 83.589,132.342 83.661,132.664 83.120 C 132.803 82.887,133.283 82.071,133.730 81.306 C 134.177 80.542,134.671 79.729,134.829 79.500 C 134.986 79.271,135.240 78.842,135.393 78.547 C 135.545 78.251,135.806 77.876,135.972 77.713 C 136.138 77.550,136.406 77.061,136.567 76.627 C 136.728 76.192,136.936 75.789,137.030 75.731 C 137.124 75.673,137.364 75.279,137.563 74.855 C 137.762 74.430,138.411 73.270,139.004 72.275 C 139.598 71.280,140.239 70.187,140.429 69.846 C 140.619 69.505,140.934 69.066,141.128 68.872 C 141.323 68.677,141.563 68.217,141.662 67.850 C 141.761 67.482,141.936 67.085,142.050 66.966 C 142.165 66.847,142.545 66.188,142.895 65.500 C 143.246 64.813,143.712 64.011,143.933 63.719 C 144.153 63.428,144.333 63.146,144.333 63.093 C 144.333 63.040,144.558 62.687,144.833 62.307 C 145.108 61.927,145.333 61.518,145.333 61.397 C 145.333 61.277,145.553 60.928,145.821 60.622 C 146.090 60.317,146.439 59.733,146.597 59.325 C 146.756 58.917,146.982 58.469,147.100 58.330 C 147.218 58.191,147.452 57.779,147.620 57.414 C 147.788 57.049,148.129 56.433,148.379 56.045 C 148.629 55.657,148.833 55.298,148.833 55.247 C 148.833 55.142,149.431 54.263,149.850 53.750 C 150.000 53.567,150.255 53.060,150.417 52.625 C 150.579 52.190,150.770 51.833,150.842 51.833 C 150.913 51.833,151.256 51.257,151.604 50.553 C 151.952 49.848,152.560 48.948,152.956 48.553 L 153.675 47.833 156.153 47.833 C 158.265 47.833,158.682 47.876,158.985 48.125 L 159.341 48.417 159.296 74.704 L 159.250 100.991 158.871 101.369 C 158.231 102.009,154.085 102.035,153.250 101.404 C 152.921 101.156,152.916 100.908,152.833 81.285 C 152.767 65.528,152.706 61.339,152.536 61.042 C 152.301 60.630,152.000 60.541,152.000 60.884 C 152.000 61.003,151.700 61.562,151.333 62.126 C 150.967 62.691,150.667 63.220,150.667 63.304 C 150.667 63.387,150.527 63.634,150.356 63.853 C 150.186 64.071,149.990 64.428,149.922 64.646 C 149.854 64.863,149.225 65.976,148.524 67.118 C 147.823 68.261,147.111 69.471,146.942 69.806 C 146.772 70.142,146.503 70.567,146.344 70.750 C 146.184 70.933,145.960 71.322,145.845 71.614 C 145.730 71.905,145.455 72.389,145.234 72.688 C 145.014 72.987,144.833 73.335,144.833 73.462 C 144.833 73.590,144.581 74.081,144.272 74.555 C 143.963 75.029,143.400 75.957,143.019 76.617 C 142.639 77.277,142.263 77.857,142.183 77.907 C 142.102 77.956,141.986 78.204,141.923 78.457 C 141.860 78.710,141.668 79.068,141.496 79.252 C 141.323 79.437,141.059 79.887,140.908 80.252 C 140.757 80.618,140.465 81.142,140.258 81.417 C 140.051 81.692,139.823 82.104,139.752 82.333 C 139.681 82.563,139.295 83.259,138.895 83.880 C 138.494 84.502,138.166 85.064,138.166 85.130 C 138.166 85.196,137.866 85.691,137.500 86.231 C 137.133 86.770,136.833 87.302,136.833 87.413 C 136.833 87.524,136.690 87.745,136.515 87.903 C 136.340 88.061,136.105 88.429,135.992 88.720 C 135.051 91.150,134.240 91.833,132.300 91.833 L 130.901 91.833 130.309 91.208 C 129.983 90.865,129.437 90.096,129.096 89.500 C 128.756 88.904,128.405 88.304,128.318 88.167 C 128.231 88.029,127.992 87.579,127.788 87.167 C 127.584 86.754,127.258 86.192,127.065 85.917 C 126.871 85.642,126.625 85.144,126.517 84.812 C 126.409 84.479,126.164 84.067,125.973 83.895 C 125.782 83.724,125.440 83.193,125.213 82.715 C 124.987 82.238,124.696 81.760,124.567 81.653 C 124.439 81.546,124.333 81.356,124.333 81.230 C 124.333 81.103,124.266 81.000,124.183 81.000 C 124.100 81.000,123.950 80.794,123.849 80.542 C 123.748 80.290,123.332 79.483,122.923 78.750 C 122.515 78.017,121.958 76.977,121.685 76.439 C 121.412 75.901,121.046 75.301,120.871 75.106 C 120.697 74.910,120.383 74.412,120.175 74.000 C 119.966 73.587,119.546 72.874,119.242 72.415 C 118.937 71.956,118.371 70.943,117.983 70.165 C 117.596 69.387,117.219 68.710,117.146 68.661 C 117.073 68.612,116.851 68.199,116.653 67.744 C 116.455 67.289,116.160 66.767,115.996 66.583 C 115.832 66.400,115.546 65.987,115.359 65.667 C 114.473 64.146,113.200 61.864,112.732 60.959 L 112.214 59.958 112.024 60.504 C 111.885 60.901,111.833 66.475,111.833 81.006 C 111.833 104.645,112.246 101.750,108.874 101.750 C 106.251 101.750,105.763 101.607,105.600 100.793 C 105.326 99.421,105.496 48.448,105.776 48.138 C 106.021 47.868,106.345 47.833,108.666 47.833 L 111.280 47.833 112.065 48.845 " stroke="none" fill="#7dc4f4" fill-rule="evenodd"></path></g></svg>